<svg width="16" height="24" viewBox="0 0 16 24" fill="none" xmlns="http://www.w3.org/2000/svg">
<path d="M14.9281 11.2127L0.840628 0.209619C0.803816 0.180638 0.759577 0.162628 0.712992 0.157656C0.666406 0.152685 0.619363 0.160954 0.577265 0.181513C0.535167 0.202073 0.499722 0.234089 0.474999 0.273885C0.450277 0.313682 0.437281 0.359644 0.437503 0.406494V2.82212C0.437503 2.97524 0.509378 3.12212 0.628128 3.21587L11.8781 12.0002L0.628128 20.7846C0.506253 20.8784 0.437503 21.0252 0.437503 21.1784V23.594C0.437503 23.8034 0.678128 23.919 0.840628 23.7909L14.9281 12.7877C15.0479 12.6943 15.1447 12.5749 15.2113 12.4384C15.278 12.302 15.3126 12.1521 15.3126 12.0002C15.3126 11.8484 15.278 11.6985 15.2113 11.5621C15.1447 11.4256 15.0479 11.3061 14.9281 11.2127Z" fill="#047EB3"/>
</svg>
