<svg width="27" height="25" viewBox="0 0 27 25" fill="none" xmlns="http://www.w3.org/2000/svg">
<path d="M11.6875 18.723L16.4967 15.968C17.3063 15.5088 17.3063 14.3367 16.4967 13.8655L11.6875 11.1105C10.878 10.6513 9.87504 11.2434 9.87504 12.1617V17.6596C9.87504 18.59 10.878 19.1821 11.6875 18.723ZM24.375 5.25004H15.2038L18.7563 1.69754C18.998 1.45587 18.998 1.08129 18.7563 0.839621C18.5146 0.597954 18.14 0.597954 17.8984 0.839621L13.5 5.23795L9.10171 0.839621C8.86004 0.597954 8.48546 0.597954 8.24379 0.839621C8.00212 1.08129 8.00212 1.45587 8.24379 1.69754L11.7963 5.25004H2.62504C1.9841 5.25004 1.36941 5.50465 0.916199 5.95786C0.462986 6.41108 0.208374 7.02576 0.208374 7.6667V22.1667C0.208374 23.4959 1.29587 24.5834 2.62504 24.5834H24.375C25.7042 24.5834 26.7917 23.4959 26.7917 22.1667V7.6667C26.7917 7.02576 26.5371 6.41108 26.0839 5.95786C25.6307 5.50465 25.016 5.25004 24.375 5.25004ZM23.1667 22.1667H3.83337C3.16879 22.1667 2.62504 21.623 2.62504 20.9584V8.87504C2.62504 8.21045 3.16879 7.6667 3.83337 7.6667H23.1667C23.8313 7.6667 24.375 8.21045 24.375 8.87504V20.9584C24.375 21.623 23.8313 22.1667 23.1667 22.1667Z" fill="#FF0000"/>
</svg>
